<?xml version="1.0" standalone="no"?>
<!DOCTYPE svg PUBLIC "-//W3C//DTD SVG 20010904//EN"
 "http://www.w3.org/TR/2001/REC-SVG-20010904/DTD/svg10.dtd">
<svg version="1.0" xmlns="http://www.w3.org/2000/svg"
 width="558.000000pt" height="558.000000pt" viewBox="0 0 558.000000 558.000000"
 preserveAspectRatio="xMidYMid meet">
<metadata>
Created by potrace 1.14, written by Peter Selinger 2001-2017
</metadata>
<g transform="translate(0.000000,558.000000) scale(0.100000,-0.100000)"
fill="#000000" stroke="none">
<path d="M4188 3370 c-2 -8 -4 -97 -3 -197 l0 -182 -34 35 c-57 58 -105 78
-196 80 -69 2 -89 -2 -141 -26 -59 -26 -111 -69 -146 -120 -17 -25 -17 -24
-17 50 l-1 75 -70 -2 -70 -1 0 119 0 119 -108 0 -108 0 1 -115 c0 -70 -4 -115
-10 -116 -5 0 -71 0 -146 1 l-137 1 -68 -120 c-38 -66 -71 -117 -74 -115 -3 3
-34 56 -70 117 l-65 112 -133 3 c-72 1 -132 -1 -131 -5 0 -4 60 -98 133 -208
l133 -200 -125 -185 c-68 -102 -127 -188 -131 -192 -3 -4 -6 113 -6 260 1 293
-5 364 -34 420 -39 76 -121 122 -232 130 -100 7 -172 -17 -231 -79 -27 -27
-48 -46 -49 -41 0 4 -1 29 -2 55 l0 48 -106 -3 -106 -3 0 -418 -1 -418 110 3
110 3 1 265 c2 281 5 304 53 359 41 46 148 62 202 29 49 -29 59 -77 59 -283 0
-104 1 -232 1 -282 l0 -93 234 0 234 0 72 126 72 125 21 -33 c27 -44 84 -145
104 -185 l17 -33 138 0 c109 0 138 3 132 13 -5 6 -68 101 -141 210 -73 110
-133 201 -133 204 0 11 175 273 183 273 4 0 7 -6 7 -12 0 -9 17 -13 55 -12 30
1 55 -1 56 -5 1 -3 2 -132 3 -286 2 -170 7 -290 13 -305 30 -71 102 -94 286
-91 l59 1 -4 81 c-3 79 -3 80 15 57 44 -54 88 -97 107 -103 11 -3 20 -10 20
-13 0 -15 97 -36 161 -35 85 1 150 29 204 88 l41 44 -2 -55 -2 -54 109 0 109
0 0 565 c0 311 -3 566 -7 566 -5 1 -54 3 -110 3 -84 2 -102 -1 -105 -14z
m-550 -469 c-51 -127 -61 -299 -23 -416 13 -38 21 -73 19 -76 -8 -14 -99 0
-111 17 -10 13 -13 79 -13 260 l0 241 69 0 69 0 -10 -26z m414 9 c45 -13 88
-52 113 -105 29 -60 28 -234 -2 -290 -39 -73 -89 -105 -165 -105 -110 0 -178
92 -180 245 -1 192 92 294 234 255z"/>
<path d="M615 3212 c0 -59 -1 -112 -3 -118 -2 -7 -24 -11 -58 -10 -32 1 -54
-2 -55 -9 -5 -47 -3 -128 3 -138 4 -7 30 -12 59 -12 l53 0 1 -285 c1 -177 5
-294 12 -310 28 -65 89 -89 229 -87 105 2 109 3 112 25 4 27 6 27 40 2 67 -50
201 -59 288 -21 26 12 67 37 90 56 50 41 54 42 54 13 0 -13 3 -33 6 -45 6 -22
10 -23 125 -23 101 0 119 2 119 15 0 9 -9 25 -20 37 -11 12 -20 36 -21 52 0
17 -1 150 -3 296 -2 285 -7 312 -59 368 -52 56 -167 91 -294 90 -144 -2 -234
-34 -292 -105 l-31 -38 0 58 c0 38 -4 57 -12 58 -7 1 -33 2 -58 3 -25 2 -51 4
-57 4 -10 2 -13 33 -13 117 l0 115 -108 -1 -107 0 0 -107z m788 -310 c11 -12
22 -35 23 -51 4 -55 -50 -83 -186 -96 -36 -4 -67 -8 -71 -10 -3 -2 -21 -7 -40
-10 -94 -17 -185 -88 -208 -164 -7 -24 -13 -72 -12 -106 l0 -61 -30 4 c-16 2
-34 13 -39 23 -6 11 -9 113 -8 256 l3 238 58 1 59 2 -6 -31 c-3 -18 -8 -42
-10 -54 -5 -24 1 -25 104 -25 104 0 108 1 115 31 3 16 17 39 31 52 44 41 175
42 217 1z m22 -315 c-7 -114 -28 -151 -104 -183 -50 -21 -75 -23 -120 -12 -65
16 -90 77 -62 147 16 37 55 56 158 77 43 9 89 22 103 30 14 7 26 13 27 14 2 0
1 -33 -2 -73z"/>
<path d="M4827 3096 c-54 -20 -88 -49 -131 -112 l-26 -39 0 73 0 72 -105 0
-105 0 0 -420 0 -420 110 0 110 0 1 38 c0 20 2 129 3 242 2 113 6 219 11 237
18 77 98 122 208 118 l47 -2 0 114 0 113 -42 0 c-24 -1 -60 -7 -81 -14z"/>
<path d="M4911 2380 c-11 -8 -23 -29 -27 -47 -5 -26 -1 -37 19 -57 29 -28 53
-32 92 -14 25 11 42 48 36 78 -10 52 -76 74 -120 40z"/>
</g>
</svg>
